<svg xmlns="http://www.w3.org/2000/svg" xmlns:xlink="http://www.w3.org/1999/xlink" viewBox="0 0 1485.06 2090.78"><defs><style>.cls-1{fill:none;}.cls-2{fill:url(#Degradado_sin_nombre_462);}.cls-3{fill:url(#Degradado_sin_nombre_462-4);}.cls-4{fill:url(#Degradado_sin_nombre_462-5);}.cls-5{fill:url(#Degradado_sin_nombre_462-7);}.cls-6{fill:url(#Degradado_sin_nombre_462-8);}.cls-7{fill:url(#Degradado_sin_nombre_168);}.cls-8{fill:url(#Degradado_sin_nombre_462-9);}.cls-9{fill:url(#Degradado_sin_nombre_462-10);}.cls-10{fill:url(#Degradado_sin_nombre_171);}.cls-11{fill:url(#Degradado_sin_nombre_170);}.cls-12{fill:url(#Degradado_sin_nombre_140);}.cls-13{fill:url(#Degradado_sin_nombre_462-11);}.cls-14{fill:url(#Degradado_sin_nombre_462-12);}.cls-15{fill:url(#Degradado_sin_nombre_462-13);}.cls-16{fill:url(#Degradado_sin_nombre_82);}.cls-17{fill:url(#Degradado_sin_nombre_183);}</style><linearGradient id="Degradado_sin_nombre_462" x1="1223.43" y1="0.05" x2="1223.45" y2="0.05" gradientUnits="userSpaceOnUse"><stop offset="0" stop-color="#2f3742"/><stop offset="1" stop-color="#537895"/></linearGradient><linearGradient id="Degradado_sin_nombre_462-4" x1="1041.74" y1="137.89" x2="1042.1" y2="137.89" xlink:href="#Degradado_sin_nombre_462"/><linearGradient id="Degradado_sin_nombre_462-5" x1="-272.06" y1="539.02" x2="1076.02" y2="240.81" xlink:href="#Degradado_sin_nombre_462"/><linearGradient id="Degradado_sin_nombre_462-7" x1="-681.26" y1="586.85" x2="1508.35" y2="472.47" xlink:href="#Degradado_sin_nombre_462"/><linearGradient id="Degradado_sin_nombre_462-8" x1="-693.24" y1="1384.57" x2="1716.97" y2="-184.11" xlink:href="#Degradado_sin_nombre_462"/><linearGradient id="Degradado_sin_nombre_168" x1="-81.42" y1="2666.58" x2="866.33" y2="562.75" gradientUnits="userSpaceOnUse"><stop offset="0" stop-color="#44abd0"/><stop offset="0.44" stop-color="#2a9ac0"/><stop offset="1" stop-color="#0281a7"/></linearGradient><linearGradient id="Degradado_sin_nombre_462-9" x1="-420.43" y1="1578.15" x2="1818.21" y2="2178.66" xlink:href="#Degradado_sin_nombre_462"/><linearGradient id="Degradado_sin_nombre_462-10" x1="701.55" y1="1219.71" x2="681.13" y2="-197.82" xlink:href="#Degradado_sin_nombre_462"/><linearGradient id="Degradado_sin_nombre_171" x1="2300.21" y1="1527.31" x2="850" y2="922.71" gradientUnits="userSpaceOnUse"><stop offset="0" stop-color="#8af4ef"/><stop offset="0.46" stop-color="#68d0e0"/><stop offset="1" stop-color="#44abd0"/></linearGradient><linearGradient id="Degradado_sin_nombre_170" x1="696.78" y1="1716.87" x2="1199.25" y2="1385.98" gradientUnits="userSpaceOnUse"><stop offset="0" stop-color="#44abd0"/><stop offset="0.34" stop-color="#319fc4"/><stop offset="1" stop-color="#0281a7"/></linearGradient><linearGradient id="Degradado_sin_nombre_140" x1="2380.89" y1="1619.67" x2="1004.21" y2="1480.77" gradientUnits="userSpaceOnUse"><stop offset="0" stop-color="#8af4ef"/><stop offset="0.23" stop-color="#80e9ea"/><stop offset="0.62" stop-color="#64ccde"/><stop offset="1" stop-color="#44abd0"/></linearGradient><linearGradient id="Degradado_sin_nombre_462-11" x1="874.23" y1="2833.44" x2="960.01" y2="1473.1" xlink:href="#Degradado_sin_nombre_462"/><linearGradient id="Degradado_sin_nombre_462-12" x1="1775.61" y1="1340.83" x2="505.14" y2="1761.59" xlink:href="#Degradado_sin_nombre_462"/><linearGradient id="Degradado_sin_nombre_462-13" x1="1725.91" y1="1712.95" x2="651.53" y2="1819.16" xlink:href="#Degradado_sin_nombre_462"/><linearGradient id="Degradado_sin_nombre_82" x1="1011.06" y1="1762.44" x2="1309.14" y2="1762.44" gradientUnits="userSpaceOnUse"><stop offset="0" stop-opacity="0"/><stop offset="0.86" stop-opacity="0.23"/><stop offset="1" stop-opacity="0.5"/></linearGradient><linearGradient id="Degradado_sin_nombre_183" x1="2385.84" y1="1275.23" x2="110.44" y2="821.78" gradientUnits="userSpaceOnUse"><stop offset="0" stop-color="#44abd0" stop-opacity="0"/><stop offset="0.85" stop-color="#1f4e5e" stop-opacity="0.44"/><stop offset="1" stop-opacity="0.8"/></linearGradient></defs><g id="Capa_2" data-name="Capa 2"><g id="color_dafault"><g id="color_dafault-2" data-name="color_dafault"><path class="cls-1" d="M488.1,884l-.12,0,0-.09Z"/><path class="cls-2" d="M1223.45.07v0a.28.28,0,0,0,0-.09A.25.25,0,0,1,1223.45.07Z"/><path class="cls-1" d="M488.1,884l-.12,0,0-.09Z"/><path class="cls-2" d="M1223.45.07v0a.28.28,0,0,0,0-.09A.25.25,0,0,1,1223.45.07Z"/><path class="cls-2" d="M1223.45.07v0a.28.28,0,0,0,0-.09A.25.25,0,0,1,1223.45.07Z"/><path class="cls-1" d="M488.1,884l-.12,0,0-.09Z"/><path class="cls-3" d="M1042.1,137.83l-.36.12"/><path class="cls-1" d="M1154.52,2031.16l-1.18.48"/><path class="cls-1" d="M488.1,884l-.12,0,0-.09Z"/><path class="cls-4" d="M1227.61,59.66a421.7,421.7,0,0,1-116.36,291.42q-6,6.33-12.28,12.41c-1.65,1.61-3.52,3.4-5.59,5.33q-1.94,1.8-3.88,3.59l-.18.16c-1,.91-2,1.8-3,2.7l-1.11,1c-1.27,1.13-2.54,2.24-3.82,3.35l-3,2.53c-1.07.91-2.18,1.84-3.31,2.78l-1.31,1.09-1.61,1.32s-.67.55-1.9,1.53l-1,.8-1.26,1a419.12,419.12,0,0,1-48.77,33.63l-.36.21c-77.24,46.65-156.58,70-156.58,70-50.89,15-111.43,25.46-174.52,33.61-89.94,11.6-185.06,18.49-264.8,27-41.73,4.48-79.25,9.4-109.61,15.7,0,0-18.34,3.8-45.64,12.08a1018.84,1018.84,0,0,1,194-200.47q18.9-14.81,38.52-28.73A1010.16,1010.16,0,0,1,718,236.27l.29-.08,4.78-1.31,7.27-2L735,231.6l.86-.23,6.91-1.92c10.93-3,22.33-6.24,34.33-9.65l4.11-1.17,7.31-2.09q16.68-4.77,32.69-9.46l3.89-1.14,7.72-2.27,7.63-2.25q13.29-3.93,26.05-7.78,5.26-1.57,10.45-3.15L891.61,186h0l6.76-2.07c49.67-15.25,92.24-29,126.21-40.28l.18-.06q8.84-2.92,16.88-5.62l.08,0A382.18,382.18,0,0,0,1213.79,13q5-6.36,9.65-12.94,2.63,18.52,3.61,37.56Q1227.61,48.58,1227.61,59.66Z"/><path class="cls-2" d="M1223.45.07v0a.28.28,0,0,0,0-.09A.25.25,0,0,1,1223.45.07Z"/><path class="cls-1" d="M488.1,884l-.12,0,0-.09Z"/><path class="cls-5" d="M718,236.27A1010.16,1010.16,0,0,0,500.27,353.74q-19.62,13.92-38.52,28.73a1018.84,1018.84,0,0,0-194,200.47c-27.28,8.28-63.52,21-99.37,38.91l-.35.17-1.06.54-.53.27-1.58.8-1.55.81c-.52.27-1,.53-1.52.81q-1.29.68-2.52,1.35l-.86.47c-1.42.77-2.76,1.51-4,2.21l-1.2.68-.38.21-1.21.7-1.68,1-.86.5L148,633l-.77.46-.31.18-.46.28-.27.16-2,1.23,0,0c-.68.41-1.34.83-2,1.24-.38.23-.75.46-1.11.7-.69.43-1.36.86-2,1.29-.94.6-1.84,1.19-2.71,1.77l-1.83,1.21c-1,.68-2,1.34-2.92,2L129,645.31a304,304,0,0,0-48.89,42.82q-2.32,2.52-4.59,5.1A301.61,301.61,0,0,0,7,828.38a385.27,385.27,0,0,1-4.74-114.2A379.48,379.48,0,0,1,75,528.36c.47-.63.94-1.27,1.43-1.91q1.08-1.44,2.16-2.85c.91-1.19,1.84-2.4,2.81-3.62q2.74-3.51,5.75-7.14l.36-.44c.78-.95,1.64-2,2.58-3.08.21-.25.43-.5.64-.76l1.15-1.35.63-.73,0,0,.09-.09.66-.76.07-.09c.54-.62,1.09-1.26,1.67-1.91l.79-.9.26-.29q1.45-1.65,3.06-3.4l1.51-1.66h0l.16-.17.48-.52,1.22-1.3.6-.65c.48-.49,1-1.05,1.58-1.66.76-.83,1.55-1.65,2.35-2.46.2-.21.4-.42.61-.62h0l.08-.08a.13.13,0,0,1,.06-.07.23.23,0,0,1,.07-.07l.65-.66.4-.41,2.95-3,1.81-1.8c2.06-2,4.25-4.16,6.48-6.26s4.33-4,6.56-6c.54-.48,1.08-1,1.62-1.44a382.15,382.15,0,0,1,51.87-38.79l.1-.07c46.34-30.14,99.89-55.77,146.92-75.51C394.82,327.42,449,311.2,449,311.2l12.5-3.73c13-3.86,25.27-7.47,37-10.88l5.8-1.68c10.88-3.16,21.25-6.13,31.21-9l6.58-1.87.37-.1,5.13-1.45c9.35-2.63,18.36-5.14,27.11-7.55l3.81-1.05q7.75-2.15,15.26-4.18l6.17-1.68,1.3-.35L611.44,265l2.22-.6,5.84-1.57.81-.22,11-2.95,2.6-.7,4-1.06L641,257l3.34-.9,7.36-2,3.53-.95c12.61-3.37,25.3-6.77,38.4-10.3l3.64-1,7-1.88,4.64-1.26Z"/><path class="cls-6" d="M267.77,582.94q-3.82,5.22-7.58,10.51-25.37,35.61-47.66,73.44a1006.48,1006.48,0,0,0-51.16,98.9q-15,33.47-27.68,68.21-9.34,25.65-17.31,51.93a.14.14,0,0,0,0,.06c-.23.73-.45,1.47-.67,2.2l-.54,1.79c0,.09-.05.19-.08.28a196.08,196.08,0,0,0,6.61,128.06,111.72,111.72,0,0,0,15.47,30.15A381.87,381.87,0,0,1,13.73,857.25Q10.6,846,8.18,834.42c-.43-2-.83-4-1.22-6A301.61,301.61,0,0,1,75.47,693.23q2.27-2.58,4.59-5.1A304,304,0,0,1,129,645.31l2.62-1.82c.93-.64,1.9-1.3,2.92-2l1.83-1.21c.87-.58,1.77-1.17,2.71-1.77l.94-.6,1.08-.69c.36-.24.73-.47,1.11-.7.65-.41,1.31-.83,2-1.24l0,0,2-1.23.27-.16.46-.28.31-.18L148,633l1.09-.64.86-.5,1.68-1,1.21-.7.38-.21,1.2-.68c1.24-.7,2.58-1.44,4-2.21l.86-.47q1.23-.68,2.52-1.35l1.52-.81,1.55-.81,1.58-.8.53-.27,1.06-.54.35-.17C204.25,604,240.49,591.22,267.77,582.94Z"/><path class="cls-1" d="M488.1,884l-.12,0,0-.09Z"/><path class="cls-1" d="M1004.59,829.1l-.14,0"/><path class="cls-7" d="M1143.76,1216.91c-180.93,29.92-293.12,48.46-373.84,53.78-56,3.69-135.89,3.6-234.78-15.3q-21.28-4.07-43.74-9.34h0C461,1233.3,429.64,1220,399,1206.62c-12.59-5.48-25.06-11-37.29-16.39h0c-61.43-27.28-116.7-53.37-150.54-72.74l-3.63-2.1-1.71-1-.84-.5-.83-.5-.06,0c-.86-.51-1.7-1-2.53-1.53-1.27-.78-2.51-1.55-3.69-2.3l-1.18-.75-.07,0q-3.69-2.4-7.26-4.94-1.83-1.3-3.61-2.64c-.52-.38-1-.77-1.53-1.16-.91-.7-1.79-1.4-2.65-2.09-1-.81-2-1.61-2.92-2.38l-1-.85-1.12-.94-1.27-1.08-.75-.65-1.11-1-.89-.78c-1.45-1.29-2.52-2.27-3.08-2.78l-.43-.4c-.74-.69-1.46-1.38-2.15-2l-1-1-.17-.16-1.1-1.1c-1.86-1.86-3.53-3.6-5-5.19l-1.45-1.58c-.93-1-1.77-2-2.52-2.83a194.78,194.78,0,0,1-18.36-24.68h0A112.6,112.6,0,0,1,121.08,949c.26-.83.55-1.7.86-2.63.22-.62.44-1.27.68-1.93l.37-1c.22-.57.44-1.16.68-1.77.35-.89.72-1.81,1.12-2.75,0-.13.11-.25.16-.38l.75-1.7.27-.6c.27-.6.56-1.21.85-1.83.39-.81.8-1.64,1.23-2.48,0,0,.17-.34.48-.92.07-.15.16-.3.25-.48l.3-.56.34-.62c.83-1.53,2-3.59,3.34-5.78.28-.46.57-.92.87-1.39.18-.29.37-.58.56-.87l.17-.25c.06-.1.14-.21.22-.32l.21-.3c2.27-3.21,7.68-9.88,13.23-16.32h0a195.23,195.23,0,0,1,13.55-14.65c22.3-19.84,51.41-35.73,81.19-48.23h0q21.93,2.13,43.68,4.87,33.46,4.17,66.5,9.66,68.48,11.37,135,28.19h0l0,.09.12,0q56.6,14.29,111.62,32.39l4.78,1.56q51.72,17.18,101.9,37.57a1664.31,1664.31,0,0,1,225.1,111.85q7.5,4.44,14.94,9h0q31,18.89,61.15,39.07A1679.49,1679.49,0,0,1,1143.76,1216.91Z"/><path class="cls-8" d="M896,1904.77q-37.85,22-77.75,40.74-22,10.34-44.66,19.62h0q-14,5.73-28.14,11a986.29,986.29,0,0,1-136.13,40.13q-5.52,1.21-11.06,2.34-24.57,5.08-49.56,8.92h0c-147.45-72.17-255.57-212.32-283.54-379.62a521.74,521.74,0,0,1-7-77.19v0a999.44,999.44,0,0,0,336.67,250.86q15.36,7,31,13.51l4.61,1.9q5.05,2.07,10.15,4.09A988.87,988.87,0,0,0,896,1904.77Z"/><path class="cls-9" d="M1277.83,252.94a478.61,478.61,0,0,1-53.8,221.2h0q-2.4,4.64-4.9,9.2a482.79,482.79,0,0,1-216.81,204.5l-1.78.82c-3.88,1.83-7.8,3.61-11.75,5.31-.61.28-1.23.54-1.85.81l-.53.23c-17.79,7.81-41.11,17.33-68.66,26.74A715.32,715.32,0,0,1,835,744.82c-22.38,4.81-45.74,8.76-72.08,12.43C722,763,673.92,768,611.15,774.6l-28.53,3c-66.74,7-112,11.94-154.81,17.61-14.68,1.94-29.06,4-43.93,6.21,0,0-59.28,8.91-121.55,32h0c-6.5,2.42-13,5-19.54,7.73h0c-29.78,12.5-58.89,28.39-81.19,48.23A195.23,195.23,0,0,0,148,904.07h0c-5.55,6.44-11,13.11-13.23,16.32l-.21.3c-.08.11-.16.22-.22.32l-.17.25c-.19.29-.38.58-.56.87-.3.47-.59.93-.87,1.39-1.35,2.19-2.51,4.25-3.34,5.78l-.34.62-.3.56c-.09.18-.18.33-.25.48-.31.58-.48.92-.48.92-.43.84-.84,1.67-1.23,2.48-.29.62-.58,1.23-.85,1.83l-.27.6-.75,1.7c0,.13-.11.25-.16.38-.4.94-.77,1.86-1.12,2.75-.24.61-.46,1.2-.68,1.77l-.37,1c-.24.64-.46,1.28-.68,1.93-.31.93-.6,1.8-.86,2.63a112.92,112.92,0,0,0,.6,69.35,196.08,196.08,0,0,1-6.61-128.06c0-.09.06-.19.08-.28l.54-1.79c.22-.73.44-1.47.67-2.2a.14.14,0,0,1,0-.06q8-26.28,17.31-51.93,12.63-34.72,27.68-68.21a1006.48,1006.48,0,0,1,51.16-98.9q22.26-37.8,47.66-73.44,3.75-5.28,7.58-10.51c27.3-8.28,45.64-12.08,45.64-12.08,30.36-6.3,67.88-11.22,109.61-15.7,79.74-8.54,174.86-15.43,264.8-27,63.09-8.15,123.63-18.61,174.52-33.61,0,0,79.34-23.37,156.58-70l.36-.21a419.12,419.12,0,0,0,48.77-33.63l1.26-1,1-.8c1.23-1,1.9-1.53,1.9-1.53l1.61-1.32,1.31-1.09c1.13-.94,2.24-1.87,3.31-2.78l3-2.53c1.28-1.11,2.55-2.22,3.82-3.35l1.11-1c1-.9,2-1.79,3-2.7l.18-.16q1.95-1.79,3.88-3.59c2.07-1.93,3.94-3.72,5.59-5.33q6.27-6.08,12.28-12.41A421.7,421.7,0,0,0,1227.61,59.66q0-11.07-.56-22-1-19-3.61-37.56v0a671.27,671.27,0,0,1,27.66,94.43h0a477.24,477.24,0,0,1,21.9,90.14A483.54,483.54,0,0,1,1277.83,252.94Z"/><path class="cls-10" d="M1414.49,1248.53a436.14,436.14,0,0,0-108.4-34c-72.55-12.6-129.51-3-162.32,2.39h0a1679.49,1679.49,0,0,0-136.16-101.54q-30.12-20.17-61.15-39.07h0q-7.44-4.53-14.94-9A1664.31,1664.31,0,0,0,706.4,955.47q-50.16-20.38-101.9-37.57l-4.78-1.56q-55-18.08-111.62-32.39l-.15,0h0q-66.48-16.78-135-28.19-33-5.47-66.5-9.66-21.75-2.73-43.68-4.87c6.51-2.74,13-5.31,19.54-7.73h0c62.27-23.13,121.55-32,121.55-32,14.87-2.23,29.25-4.27,43.93-6.21,42.8-5.67,88.07-10.59,154.81-17.61l28.53-3C673.92,768,722,763,763,757.25c26.34-3.67,49.7-7.62,72.08-12.43a1216.63,1216.63,0,0,1,126.25,59.64q21.86,11.89,43.17,24.66a1230.86,1230.86,0,0,1,304.88,258.06l.83,1,1.92,2.24q1.9,2.23,3.79,4.5a729.38,729.38,0,0,1,62.74,87.48c1,1.54,1.88,3.08,2.81,4.63Q1399.36,1216.87,1414.49,1248.53Z"/><path class="cls-1" d="M488.1,884l-.12,0,0-.09Z"/><path class="cls-11" d="M1437,1660.08a373.66,373.66,0,0,1-35.08,158.61v0q-5.52,8.07-11.36,15.89h0a479.49,479.49,0,0,1-82.42,85.75q1-13.5,1-27.28,0-14.28-1.09-28.29a358.47,358.47,0,0,0-40-139.12q-8-15.3-17.45-29.71c-.46-.7-.93-1.42-1.42-2.15l-1.49-2.24-.12-.17c-.47-.7-1-1.42-1.46-2.14-1.89-2.75-3.95-5.67-6.17-8.71l-2-2.64c-1.41-1.9-2.89-3.84-4.42-5.82-.64-.82-1.28-1.64-1.94-2.47l-1.71-2.14c-.57-.72-1.16-1.45-1.76-2.18-1.58-1.94-3.22-3.92-4.93-5.92q-1.9-2.25-3.93-4.54-.66-.77-1.35-1.53l-.63-.71-.34-.36-1-1.11-1.3-1.41-.66-.71-.56-.61-.42-.44-.49-.52-.48-.5-1.11-1.16-.58-.61-.6-.62c-1.63-1.69-3.46-3.57-5.46-5.58l-1.11-1.11c-.75-.75-1.52-1.52-2.31-2.29l-2.44-2.38c-2.91-2.82-6.06-5.78-9.35-8.77l-2.15-1.92c-.72-.65-1.45-1.29-2.18-1.93-1.21-1.06-2.45-2.13-3.69-3.18l-.7-.59q-7.32-6.21-14.74-12.28c-87-71.46-181.92-130.63-263.22-175.46-33.34-18.38-64.39-34.34-91.69-47.75-35.92-17.64-65.32-30.85-84.86-39.31-16.87-7.29-26.39-11-26.39-11s-38.2-15.08-94-37.76c-26.87-10.93-57.81-23.64-90.52-37.27q-11.66-4.86-23.57-9.87,22.44,5.31,43.74,9.34c98.89,18.9,178.81,19,234.78,15.3,80.72-5.32,192.91-23.86,373.84-53.78h0q30.66,25.36,60.07,52.14A1683.74,1683.74,0,0,1,1328,1394.63q8.26,9.27,16.37,18.66.19.21.36.42,1.7,1.95,3.37,3.91l.3.35A374.09,374.09,0,0,1,1437,1660.08Z"/><path class="cls-12" d="M1485.06,1554.46v.37q-.24,21.53-2.35,42.57a474.12,474.12,0,0,1-80.79,221.29A374.86,374.86,0,0,0,1348.44,1418l-.3-.35q-1.68-2-3.37-3.91-.16-.21-.36-.42-8.1-9.39-16.37-18.66a1683.74,1683.74,0,0,0-124.2-125.58q-29.4-26.76-60.07-52.14c32.81-5.42,89.77-15,162.32-2.39a436.14,436.14,0,0,1,108.4,34A723.49,723.49,0,0,1,1475,1440q4.77,28.35,7.33,57.43a.76.76,0,0,1,0,.15Q1484.77,1525.72,1485.06,1554.46Z"/><path class="cls-13" d="M1309.14,1893.08q0,13.77-1,27.28h0a412.89,412.89,0,0,1-108.48,88.78,406.07,406.07,0,0,1-46.29,22.49c-1.71.7-3.44,1.4-5.21,2.1a796,796,0,0,1-510,27.72l-3.24-.91c-2.38-.67-4.74-1.36-7.1-2.06q-14-4.17-27.6-9.09a512.45,512.45,0,0,1-51.5-21.85q25-3.84,49.56-8.92,5.54-1.12,11.06-2.34a986.29,986.29,0,0,0,136.13-40.13q14.17-5.29,28.14-11h0q22.62-9.27,44.66-19.62,39.87-18.69,77.75-40.74a1007.57,1007.57,0,0,0,275-7.18h0A988.12,988.12,0,0,0,1291,1870q8.55-2.54,17-5.22Q1309.13,1878.79,1309.14,1893.08Z"/><path class="cls-14" d="M1198.42,1633.19q-8.48,11.52-17.27,22.77c-1.57,2-3.16,4-4.78,6.07q-7.36,9.29-14.95,18.38-1.74,2.1-3.5,4.18t-3.52,4.16q-5.3,6.23-10.7,12.36A1000.07,1000.07,0,0,1,896,1904.77a988.87,988.87,0,0,1-255.45-63.65q-5.1-2-10.15-4.09l-4.61-1.9q-15.63-6.5-31-13.51a999.44,999.44,0,0,1-336.67-250.86A380.62,380.62,0,0,0,493,1691.34l.32,0q6.12.75,12.29,1.27l.16,0,.23,0h.14Q530,1695,554,1696.62q17.31,1.14,34.72,1.85,27.45,1.14,55.16,1.24c1.84,0,3.68,0,5.52,0q19.68,0,39.22-.53,50.18-1.34,99.46-6.06a1436.77,1436.77,0,0,0,223-39.16,1426.34,1426.34,0,0,0,154.08-49.28,3.8,3.8,0,0,0,.47-.18q7.41,6.07,14.74,12.28l.7.59c1.24,1,2.48,2.12,3.69,3.18.73.64,1.46,1.28,2.18,1.93l2.15,1.92C1192.36,1627.41,1195.51,1630.37,1198.42,1633.19Z"/><path class="cls-15" d="M1308.05,1864.79q-8.47,2.68-17,5.22a988.12,988.12,0,0,1-120,27.58h0a1007.57,1007.57,0,0,1-275,7.18,1000.07,1000.07,0,0,0,247.68-203.66q5.4-6.13,10.7-12.36,1.77-2.07,3.52-4.16t3.5-4.18q7.59-9.09,14.95-18.38c1.62-2,3.21-4.06,4.78-6.07q8.79-11.25,17.27-22.77l2.44,2.38c.79.77,1.56,1.54,2.31,2.29l1.11,1.11c2,2,3.83,3.89,5.46,5.58l.6.62.58.61,1.11,1.16.48.5.49.52.42.44.56.61.66.71,1.3,1.41,1,1.11.34.36.63.71q.69.76,1.35,1.53,2,2.29,3.93,4.54c1.71,2,3.35,4,4.93,5.92l1.76,2.18,1.71,2.14c.66.83,1.3,1.65,1.94,2.47,1.53,2,3,3.92,4.42,5.82l2,2.64c2.22,3,4.28,6,6.17,8.71.5.72,1,1.44,1.46,2.14l.12.17c.49.75,1,1.49,1.49,2.24s1,1.45,1.42,2.15q9.4,14.4,17.45,29.71A358.47,358.47,0,0,1,1308.05,1864.79Z"/><path class="cls-16" d="M1309.14,1893.08q0,13.77-1,27.28A356.37,356.37,0,0,0,1291,1870a360.81,360.81,0,0,0-280-216,1426.34,1426.34,0,0,0,154.08-49.28,3.8,3.8,0,0,0,.47-.18q7.41,6.07,14.74,12.28l.7.59c1.24,1,2.48,2.12,3.69,3.18.73.64,1.46,1.28,2.18,1.93l2.15,1.92c3.29,3,6.44,5.95,9.35,8.77l2.44,2.38c.79.77,1.56,1.54,2.31,2.29l1.11,1.11c2,2,3.83,3.89,5.46,5.58l.6.62.58.61,1.11,1.16.48.5.49.52.42.44.56.61.66.71,1.3,1.41,1,1.11.34.36.63.71q.69.76,1.35,1.53,2,2.29,3.93,4.54c1.71,2,3.35,4,4.93,5.92l1.76,2.18,1.71,2.14c.66.83,1.3,1.65,1.94,2.47,1.53,2,3,3.92,4.42,5.82l2,2.64c2.22,3,4.28,6,6.17,8.71.5.72,1,1.44,1.46,2.14l.12.17c.49.75,1,1.49,1.49,2.24s1,1.45,1.42,2.15q9.4,14.4,17.45,29.71a358.47,358.47,0,0,1,40,139.12Q1309.13,1878.79,1309.14,1893.08Z"/><path class="cls-17" d="M1004.45,829.12c-38.72,5.28-75,9.74-108.51,13.45q-6.6.73-13,1.43c-52.63,5.67-97.69,9.44-133.22,11.64-24.69,1.54-44.78,2.32-59.6,2.45-34.13.31-65.82-.6-65.82-.6-7.43-.25-14.28-.55-21-.89-8.64-.44-17-.94-25.9-1.45-24.44-1.4-53.09-2.9-103.43-3.59-13.79-.19-29.2-.32-46.6-.37a743.52,743.52,0,0,0-74.4,4.53c-11.24,1.23-23.21,2.78-35.5,4.76h0a507.87,507.87,0,0,0-61,13.39h0c-31.56,9.19-61,22.11-81.42,40.27-2.34,2.08-7.73,8-13.16,14.29,0,0,0,0,0,0-5.41,6.27-10.87,12.89-13.37,16.34-.09.12-.17.23-.24.34-.88,1.32-1.74,2.66-2.56,4q-.51.81-1,1.65c-.66,1.13-1.24,2.18-1.72,3.05a112.65,112.65,0,0,0-5.84,94.61h0A112.6,112.6,0,0,1,121.08,949c.26-.83.55-1.7.86-2.63.22-.62.44-1.27.68-1.93l.37-1c.22-.57.44-1.16.68-1.77.35-.89.72-1.81,1.12-2.75,0-.13.11-.25.16-.38l.75-1.7.27-.6c.27-.6.56-1.21.85-1.83.39-.81.8-1.64,1.23-2.48,0,0,.17-.34.48-.92.07-.15.16-.3.25-.48l.3-.56.34-.62c.83-1.53,2-3.59,3.34-5.78.28-.46.57-.92.87-1.39.18-.29.37-.58.56-.87l.17-.25c.06-.1.14-.21.22-.32l.21-.3c2.27-3.21,7.68-9.88,13.23-16.32h0a195.23,195.23,0,0,1,13.55-14.65c22.3-19.84,51.41-35.73,81.19-48.23h0c6.51-2.74,13-5.31,19.54-7.73h0c62.27-23.13,121.55-32,121.55-32,14.87-2.23,29.25-4.27,43.93-6.21,42.8-5.67,88.07-10.59,154.81-17.61l28.53-3C673.92,768,722,763,763,757.25c26.34-3.67,49.7-7.62,72.08-12.43a1216.63,1216.63,0,0,1,126.25,59.64Q983.14,816.36,1004.45,829.12Z"/></g></g></g></svg>