<svg xmlns="http://www.w3.org/2000/svg" xmlns:xlink="http://www.w3.org/1999/xlink" viewBox="0 0 1782.52 1770.93"><defs><style>.cls-1{fill:#fff;}.cls-2{fill:none;}.cls-3{fill:url(#Degradado_sin_nombre_462);}.cls-4{fill:url(#Degradado_sin_nombre_462-4);}.cls-5{fill:url(#Degradado_sin_nombre_462-5);}.cls-6{fill:url(#Degradado_sin_nombre_462-7);}.cls-7{fill:url(#Degradado_sin_nombre_462-8);}.cls-8{fill:url(#Degradado_sin_nombre_168);}.cls-9{fill:url(#Degradado_sin_nombre_462-9);}.cls-10{fill:url(#Degradado_sin_nombre_462-10);}.cls-11{fill:url(#Degradado_sin_nombre_171);}.cls-12{fill:url(#Degradado_sin_nombre_170);}.cls-13{fill:url(#Degradado_sin_nombre_140);}.cls-14{fill:url(#Degradado_sin_nombre_462-11);}.cls-15{fill:url(#Degradado_sin_nombre_462-12);}.cls-16{fill:url(#Degradado_sin_nombre_462-13);}.cls-17{fill:url(#Degradado_sin_nombre_82);}.cls-18{fill:url(#Degradado_sin_nombre_183);}</style><linearGradient id="Degradado_sin_nombre_462" x1="1177.21" y1="268.39" x2="1177.22" y2="268.39" gradientUnits="userSpaceOnUse"><stop offset="0" stop-color="#2f3742"/><stop offset="1" stop-color="#537895"/></linearGradient><linearGradient id="Degradado_sin_nombre_462-4" x1="1069.25" y1="349.76" x2="1069.46" y2="349.76" xlink:href="#Degradado_sin_nombre_462"/><linearGradient id="Degradado_sin_nombre_462-5" x1="289.12" y1="587.54" x2="1089.5" y2="410.49" xlink:href="#Degradado_sin_nombre_462"/><linearGradient id="Degradado_sin_nombre_462-7" x1="45.63" y1="614.99" x2="1346.33" y2="547.04" xlink:href="#Degradado_sin_nombre_462"/><linearGradient id="Degradado_sin_nombre_462-8" x1="40.1" y1="1086.64" x2="1467.11" y2="157.88" xlink:href="#Degradado_sin_nombre_462"/><linearGradient id="Degradado_sin_nombre_168" x1="403.27" y1="1845.56" x2="964.55" y2="599.63" gradientUnits="userSpaceOnUse"><stop offset="0" stop-color="#44abd0"/><stop offset="0.44" stop-color="#2a9ac0"/><stop offset="1" stop-color="#0281a7"/></linearGradient><linearGradient id="Degradado_sin_nombre_462-9" x1="200.99" y1="1199.24" x2="1530.06" y2="1555.76" xlink:href="#Degradado_sin_nombre_462"/><linearGradient id="Degradado_sin_nombre_462-10" x1="867.08" y1="988.32" x2="855.03" y2="151.63" xlink:href="#Degradado_sin_nombre_462"/><linearGradient id="Degradado_sin_nombre_171" x1="1815.97" y1="1172.31" x2="955" y2="813.37" gradientUnits="userSpaceOnUse"><stop offset="0" stop-color="#8af4ef"/><stop offset="0.46" stop-color="#68d0e0"/><stop offset="1" stop-color="#44abd0"/></linearGradient><linearGradient id="Degradado_sin_nombre_170" x1="863.64" y1="1282.79" x2="1162.55" y2="1085.95" gradientUnits="userSpaceOnUse"><stop offset="0" stop-color="#44abd0"/><stop offset="0.34" stop-color="#319fc4"/><stop offset="1" stop-color="#0281a7"/></linearGradient><linearGradient id="Degradado_sin_nombre_140" x1="1864.55" y1="1224.83" x2="1047.11" y2="1142.36" gradientUnits="userSpaceOnUse"><stop offset="0" stop-color="#8af4ef"/><stop offset="0.23" stop-color="#80e9ea"/><stop offset="0.62" stop-color="#64ccde"/><stop offset="1" stop-color="#44abd0"/></linearGradient><linearGradient id="Degradado_sin_nombre_462-11" x1="969.9" y1="1941.35" x2="1020.59" y2="1137.67" xlink:href="#Degradado_sin_nombre_462"/><linearGradient id="Degradado_sin_nombre_462-12" x1="1505.23" y1="1058.35" x2="750.24" y2="1308.39" xlink:href="#Degradado_sin_nombre_462"/><linearGradient id="Degradado_sin_nombre_462-13" x1="1475.78" y1="1279.31" x2="837.46" y2="1342.41" xlink:href="#Degradado_sin_nombre_462"/><linearGradient id="Degradado_sin_nombre_82" x1="1051.02" y1="1308.74" x2="1228.13" y2="1308.74" gradientUnits="userSpaceOnUse"><stop offset="0" stop-opacity="0"/><stop offset="0.86" stop-opacity="0.23"/><stop offset="1" stop-opacity="0.5"/></linearGradient><linearGradient id="Degradado_sin_nombre_183" x1="1868.1" y1="1022.65" x2="515.84" y2="753.17" gradientUnits="userSpaceOnUse"><stop offset="0" stop-color="#44abd0" stop-opacity="0"/><stop offset="0.85" stop-color="#1f4e5e" stop-opacity="0.44"/><stop offset="1" stop-opacity="0.8"/></linearGradient></defs><g id="Capa_2" data-name="Capa 2"><g id="Apps"><g id="Saluth_ligth"><path class="cls-1" d="M891.5,1770.92c-314-.14-552.22-.25-721.78-168.19C-3.45,1431.21-1.73,1186.87.48,871.8,2.65,563.05,4.27,333.14,169.72,168.19,338.68-.24,577.36-.13,891.5,0c315.12.14,552.79.25,721.78,168.18,169.24,168.19,169.24,405,169.24,717.27s0,549.09-169.24,717.27C1443.79,1771.16,1204.92,1771.06,891.5,1770.92Z"/><path class="cls-2" d="M740.29,790.16s0,0-.07,0l0-.05Z"/><path class="cls-3" d="M1177.22,268.4a0,0,0,0,1,0,0v-.05S1177.22,268.39,1177.22,268.4Z"/><path class="cls-2" d="M740.29,790.16s0,0-.07,0l0-.05Z"/><path class="cls-3" d="M1177.22,268.4a0,0,0,0,1,0,0v-.05S1177.22,268.39,1177.22,268.4Z"/><path class="cls-3" d="M1177.22,268.4a0,0,0,0,1,0,0v-.05S1177.22,268.39,1177.22,268.4Z"/><path class="cls-2" d="M740.29,790.16s0,0-.07,0l0-.05Z"/><path class="cls-4" d="M1069.46,349.72l-.21.07"/><path class="cls-2" d="M1136.26,1467.37l-.7.29"/><path class="cls-2" d="M740.29,790.16s0,0-.07,0l0-.05Z"/><path class="cls-5" d="M1179.69,303.58a247.92,247.92,0,0,1-69.14,172q-3.57,3.74-7.3,7.32c-1,.95-2.09,2-3.32,3.15l-2.3,2.12-.11.09-1.78,1.6-.66.58-2.27,2-1.75,1.49-2,1.64-.78.65-1,.78-1.12.9-.6.47-.75.59a247.72,247.72,0,0,1-29,19.85l-.21.13c-45.89,27.53-93,41.33-93,41.33-30.24,8.86-66.21,15-103.7,19.84-53.44,6.85-110,10.92-157.34,16-24.79,2.64-47.09,5.55-65.12,9.26,0,0-10.9,2.25-27.12,7.14A602.32,602.32,0,0,1,724.64,494.14q11.22-8.75,22.88-17A601.52,601.52,0,0,1,876.9,407.83l.18,0,2.84-.78,4.32-1.18,2.74-.75.51-.14,4.1-1.13c6.5-1.8,13.27-3.69,20.4-5.7l2.44-.69,4.35-1.23q9.9-2.82,19.42-5.59l2.31-.67,4.59-1.34,4.53-1.33q7.9-2.33,15.48-4.59l6.21-1.86,8.73-2.65h0l4-1.22c29.51-9,54.8-17.13,75-23.78l.1,0,10-3.32,0,0a227,227,0,0,0,102.23-73.74c2-2.5,3.88-5.05,5.73-7.64q1.56,10.93,2.15,22.18Q1179.69,297,1179.69,303.58Z"/><path class="cls-3" d="M1177.22,268.4a0,0,0,0,1,0,0v-.05S1177.22,268.39,1177.22,268.4Z"/><path class="cls-2" d="M740.29,790.16s0,0-.07,0l0-.05Z"/><path class="cls-6" d="M876.9,407.83a601.52,601.52,0,0,0-129.38,69.35q-11.65,8.2-22.88,17A602.32,602.32,0,0,0,609.38,612.48a386.45,386.45,0,0,0-59,23l-.2.1-.63.32-.32.16-.94.48-.92.47-.9.48-1.5.8-.51.28-2.38,1.3-.71.4-.22.13-.72.41-1,.57-.51.29-.65.38-.46.27-.18.11-.28.16-.16.1-1.2.72h0l-1.19.74-.66.41-1.2.76c-.55.35-1.09.7-1.61,1.05l-1.08.71q-.91.6-1.74,1.17l-1.56,1.07a180.41,180.41,0,0,0-29,25.28c-.93,1-1.83,2-2.73,3a177.45,177.45,0,0,0-40.71,79.78A226.69,226.69,0,0,1,451.59,690a223.28,223.28,0,0,1,43.22-109.69l.85-1.13q.64-.86,1.29-1.68c.54-.71,1.09-1.42,1.67-2.14q1.62-2.07,3.41-4.22c.08-.08.15-.17.22-.25.46-.57,1-1.17,1.53-1.82l.38-.45c.23-.27.46-.53.68-.8l.38-.43,0,0,.05-.06.39-.44,0-.06,1-1.13.47-.53.15-.17,1.82-2,.9-1h0l.1-.1.28-.31c.19-.19.43-.45.73-.77l.35-.38c.29-.29.6-.62.94-1s.92-1,1.4-1.45l.36-.37h0a.12.12,0,0,1,0-.05l0,0,0,0,.38-.39.24-.24,1.75-1.77,1.08-1.06c1.22-1.21,2.52-2.46,3.85-3.7s2.57-2.36,3.9-3.53c.32-.29.64-.58,1-.85A226.07,226.07,0,0,1,557.34,523l.06,0c27.53-17.79,59.35-32.92,87.3-44.58,40.17-16.75,72.35-26.32,72.35-26.32l7.42-2.21c7.72-2.28,15-4.41,22-6.42l3.45-1c6.46-1.87,12.62-3.62,18.54-5.28l3.91-1.11.22-.06,3.05-.85c5.56-1.56,10.91-3,16.11-4.46l2.26-.62,9.07-2.47,3.66-1,.78-.21,6.09-1.64,1.32-.35,3.47-.93.48-.13,6.52-1.74,1.55-.41,2.35-.63,1.89-.5,2-.53,4.37-1.16,2.1-.56,22.82-6.08,2.16-.58,4.13-1.11,2.76-.75Z"/><path class="cls-7" d="M609.38,612.48q-2.28,3.07-4.51,6.2-15.06,21-28.31,43.35a591.3,591.3,0,0,0-30.4,58.38q-8.94,19.76-16.45,40.27-5.55,15.14-10.28,30.65l0,0-.39,1.3-.33,1.05c0,.06,0,.12,0,.17a115,115,0,0,0,3.92,75.59,65.8,65.8,0,0,0,9.2,17.8,226.64,226.64,0,0,1-28.68-28.44,224.11,224.11,0,0,1-44.66-84.44q-1.86-6.66-3.29-13.47c-.26-1.19-.5-2.38-.73-3.57a177.45,177.45,0,0,1,40.71-79.78c.9-1,1.8-2,2.73-3a180.41,180.41,0,0,1,29-25.28l1.56-1.07q.82-.57,1.74-1.17l1.08-.71c.52-.35,1.06-.7,1.61-1.05l.56-.35c.21-.14.42-.28.64-.41l.66-.41,1.19-.74h0l1.2-.72.16-.1.28-.16.18-.11.46-.27.65-.38.51-.29,1-.57.72-.41.22-.13.71-.4,2.38-1.3.51-.28,1.5-.8.9-.48.92-.47.94-.48.32-.16.63-.32.2-.1A386.45,386.45,0,0,1,609.38,612.48Z"/><path class="cls-2" d="M740.29,790.16s0,0-.07,0l0-.05Z"/><path class="cls-2" d="M1047.18,757.79h-.09"/><path class="cls-8" d="M1129.87,986.71c-107.51,17.67-174.17,28.61-222.13,31.75-33.25,2.18-80.74,2.13-139.5-9q-12.65-2.4-26-5.52h0c-18-7.52-36.68-15.4-54.9-23.27q-11.22-4.86-22.15-9.68h0c-36.5-16.1-69.34-31.5-89.44-42.94-.74-.41-1.46-.83-2.16-1.23l-1-.6-.5-.3-.49-.29,0,0-1.5-.9-2.19-1.36-.7-.44,0,0c-1.47-.94-2.9-1.91-4.32-2.91l-2.14-1.56-.91-.69c-.54-.41-1.07-.82-1.58-1.23l-1.73-1.4c-.2-.17-.41-.33-.61-.51l-.67-.55-.75-.64-.45-.38-.66-.57-.53-.47c-.86-.76-1.49-1.34-1.83-1.64l-.25-.23-1.28-1.21-.61-.59-.1-.1c-.23-.22-.45-.43-.66-.65-1.1-1.09-2.09-2.12-3-3.06l-.87-.93-1.49-1.67a114.27,114.27,0,0,1-10.91-14.57h0a66,66,0,0,1-9.55-58.73q.22-.74.51-1.56c.13-.36.26-.75.4-1.14.07-.19.15-.39.22-.59s.26-.69.41-1c.21-.52.42-1.07.66-1.62,0-.08.07-.15.1-.22.15-.34.29-.68.44-1l.16-.35c.16-.36.34-.72.51-1.08s.47-1,.73-1.47l.28-.54.15-.28c.06-.1.12-.22.18-.33l.2-.37c.5-.9,1.19-2.12,2-3.41.16-.27.34-.54.52-.82s.21-.34.33-.52l.1-.14a1.07,1.07,0,0,1,.13-.19l.12-.18c1.35-1.89,4.57-5.83,7.87-9.63h0a118.13,118.13,0,0,1,8-8.65c13.25-11.71,30.55-21.09,48.24-28.47h0q13,1.26,26,2.88,19.89,2.46,39.52,5.7,40.68,6.71,80.2,16.64h0l0,.05s0,0,.07,0q33.63,8.45,66.32,19.12l2.84.93q30.74,10.13,60.55,22.17a991.21,991.21,0,0,1,133.75,66q4.46,2.63,8.88,5.3h0q18.44,11.14,36.34,23.06A1000.57,1000.57,0,0,1,1129.87,986.71Z"/><path class="cls-9" d="M982.67,1392.76q-22.49,13-46.2,24-13.1,6.11-26.54,11.58h0q-8.29,3.39-16.72,6.51a588.06,588.06,0,0,1-80.89,23.69c-2.18.48-4.38.94-6.57,1.39q-14.6,3-29.45,5.26h0c-87.61-42.6-151.85-125.33-168.47-224.09a305.23,305.23,0,0,1-4.18-45.57h0a593,593,0,0,0,200,148.09q9.12,4.14,18.42,8l2.73,1.13c2,.81,4,1.62,6,2.41a591.06,591.06,0,0,0,151.78,37.57Z"/><path class="cls-10" d="M1209.53,417.67a281,281,0,0,1-32,130.58h0q-1.43,2.73-2.91,5.43A286.09,286.09,0,0,1,1045.83,674.4l-1.06.49c-2.31,1.08-4.63,2.13-7,3.13-.36.17-.73.32-1.1.48l-.32.14c-10.57,4.61-24.42,10.23-40.79,15.78A426.66,426.66,0,0,1,946.43,708c-13.3,2.84-27.18,5.18-42.83,7.34-24.31,3.37-52.9,6.35-90.2,10.24l-16.95,1.77c-39.65,4.15-66.55,7-92,10.4-8.72,1.15-17.27,2.35-26.1,3.67a410.09,410.09,0,0,0-72.22,18.91h0c-3.86,1.43-7.74,2.95-11.61,4.56h0c-17.69,7.38-35,16.76-48.24,28.47a118.13,118.13,0,0,0-8,8.65h0c-3.3,3.8-6.52,7.74-7.87,9.63l-.12.18a1.07,1.07,0,0,0-.13.19l-.1.14c-.12.18-.23.35-.33.52s-.36.55-.52.82c-.8,1.29-1.49,2.51-2,3.41l-.2.37c-.06.11-.12.23-.18.33l-.15.28-.28.54c-.26.5-.5,1-.73,1.47s-.35.72-.51,1.08l-.16.35c-.15.33-.29.67-.44,1,0,.07-.07.14-.1.22-.24.55-.45,1.1-.66,1.62-.15.36-.28.71-.41,1s-.15.4-.22.59c-.14.38-.27.76-.4,1.14q-.29.82-.51,1.56a66.2,66.2,0,0,0,.35,40.93,115,115,0,0,1-3.92-75.59s0-.11,0-.17l.33-1.05.39-1.3,0,0q4.73-15.51,10.28-30.65,7.5-20.5,16.45-40.27A591.3,591.3,0,0,1,576.56,662q13.22-22.31,28.31-43.35,2.24-3.12,4.51-6.2c16.22-4.89,27.12-7.14,27.12-7.14,18-3.71,40.33-6.62,65.12-9.26,47.38-5,103.9-9.11,157.34-16,37.49-4.81,73.46-11,103.7-19.84,0,0,47.14-13.8,93-41.33l.21-.13a247.72,247.72,0,0,0,29-19.85l.75-.59.6-.47,1.12-.9,1-.78.78-.65,2-1.64,1.75-1.49,2.27-2,.66-.58,1.78-1.6.11-.09,2.3-2.12c1.23-1.14,2.34-2.2,3.32-3.15q3.74-3.58,7.3-7.32a247.92,247.92,0,0,0,69.14-172q0-6.54-.33-13-.58-11.23-2.15-22.18a0,0,0,0,0,0,0,394.44,394.44,0,0,1,16.43,55.75h0a279.86,279.86,0,0,1,13,53.21A283.56,283.56,0,0,1,1209.53,417.67Z"/><path class="cls-11" d="M1290.73,1005.38a260.42,260.42,0,0,0-64.41-20.08c-43.11-7.44-77-1.79-96.45,1.41h0a1000.57,1000.57,0,0,0-80.9-59.94q-17.91-11.91-36.34-23.06h0q-4.43-2.67-8.88-5.3a991.21,991.21,0,0,0-133.75-66q-29.81-12-60.55-22.17l-2.84-.93q-32.67-10.66-66.32-19.12l-.09,0h0q-39.51-9.92-80.2-16.64-19.63-3.22-39.52-5.7-12.91-1.62-26-2.88c3.87-1.61,7.75-3.13,11.61-4.56h0a410.09,410.09,0,0,1,72.22-18.91c8.83-1.32,17.38-2.52,26.1-3.67,25.43-3.35,52.33-6.25,92-10.4l16.95-1.77c37.3-3.89,65.89-6.87,90.2-10.24,15.65-2.16,29.53-4.5,42.83-7.34a725.68,725.68,0,0,1,75,35.21q13,7,25.65,14.56a730.27,730.27,0,0,1,181.16,152.33c.16.19.32.39.49.58l1.14,1.32,2.25,2.65a430.23,430.23,0,0,1,37.28,51.64c.56.91,1.12,1.82,1.67,2.74Q1281.75,986.69,1290.73,1005.38Z"/><path class="cls-2" d="M740.29,790.16s0,0-.07,0l0-.05Z"/><path class="cls-12" d="M1304.1,1248.32a219.48,219.48,0,0,1-20.84,93.63v0q-3.27,4.76-6.75,9.38h0a284.14,284.14,0,0,1-49,50.62q.6-8,.6-16.11,0-8.43-.65-16.7A210.43,210.43,0,0,0,1203.7,1287q-4.77-9-10.37-17.54l-.84-1.27-.89-1.32-.07-.1c-.28-.41-.57-.84-.87-1.26q-1.68-2.44-3.66-5.15l-1.16-1.55c-.84-1.13-1.72-2.27-2.63-3.44l-1.15-1.46q-.49-.63-1-1.26c-.33-.43-.69-.86-1-1.29-.94-1.14-1.91-2.31-2.93-3.49-.76-.89-1.53-1.78-2.34-2.68-.26-.3-.52-.61-.8-.91l-.37-.42-.2-.21-.6-.65-.78-.84-.39-.41-.33-.36-.25-.26-.29-.31-.29-.3-.66-.68-.34-.36-.36-.37c-1-1-2-2.1-3.24-3.29l-.66-.66-1.37-1.35-1.45-1.4c-1.73-1.67-3.61-3.42-5.56-5.18l-1.28-1.13q-.65-.59-1.29-1.14c-.72-.63-1.46-1.26-2.2-1.88l-.41-.35q-4.35-3.66-8.76-7.25c-51.72-42.18-108.09-77.11-156.4-103.57-19.81-10.85-38.26-20.27-54.48-28.19-21.34-10.41-38.81-18.21-50.42-23.21-10-4.3-15.68-6.52-15.68-6.52s-22.7-8.9-55.83-22.29c-16-6.45-34.35-14-53.78-22q-6.93-2.87-14-5.83,13.34,3.14,26,5.52c58.76,11.16,106.25,11.21,139.5,9,48-3.14,114.62-14.08,222.13-31.75h0q18.23,15,35.7,30.78a998.2,998.2,0,0,1,73.79,74.13q4.92,5.48,9.73,11a1.64,1.64,0,0,1,.21.25l2,2.3.17.21a222.05,222.05,0,0,1,28.76,43.12A219.3,219.3,0,0,1,1304.1,1248.32Z"/><path class="cls-13" d="M1332.66,1186v.22q-.15,12.7-1.4,25.13a278.7,278.7,0,0,1-48,130.63,220.7,220.7,0,0,0-3-193.43,222.05,222.05,0,0,0-28.76-43.12l-.17-.21-2-2.3a1.64,1.64,0,0,0-.21-.25q-4.81-5.55-9.73-11a998.2,998.2,0,0,0-73.79-74.13q-17.47-15.79-35.7-30.78c19.5-3.2,53.34-8.85,96.45-1.41a260.42,260.42,0,0,1,64.41,20.08,425,425,0,0,1,35.92,113q2.83,16.72,4.36,33.9v.09Q1332.48,1169,1332.66,1186Z"/><path class="cls-14" d="M1228.13,1385.86q0,8.13-.6,16.11h0a245,245,0,0,1-92,65.69c-1,.41-2,.82-3.1,1.23a475.82,475.82,0,0,1-303,16.37l-1.93-.54c-1.41-.39-2.81-.8-4.22-1.21q-8.29-2.48-16.4-5.37a306.65,306.65,0,0,1-30.6-12.9q14.85-2.27,29.45-5.26c2.19-.45,4.39-.91,6.57-1.39a588.06,588.06,0,0,0,80.89-23.69q8.41-3.12,16.72-6.51h0q13.44-5.46,26.54-11.58,23.68-11,46.2-24a602.24,602.24,0,0,0,163.37-4.24h0a589.12,589.12,0,0,0,71.32-16.28c3.38-1,6.76-2,10.11-3.08Q1228.13,1377.43,1228.13,1385.86Z"/><path class="cls-15" d="M1162.35,1232.45q-5,6.79-10.27,13.44c-.93,1.18-1.87,2.38-2.84,3.58q-4.37,5.49-8.88,10.85c-.69.83-1.38,1.65-2.08,2.47s-1.39,1.64-2.09,2.45q-3.15,3.67-6.36,7.3a593.36,593.36,0,0,1-147.16,120.22,591.06,591.06,0,0,1-151.78-37.57c-2-.79-4-1.6-6-2.41l-2.73-1.13q-9.3-3.83-18.42-8a593,593,0,0,1-200-148.09,226.61,226.61,0,0,0,139.53,71.18l.19,0c2.43.3,4.86.54,7.3.75H751q14.16,1.4,28.45,2.32,10.29.67,20.63,1.09,16.32.68,32.78.73c1.09,0,2.18,0,3.28,0q11.68,0,23.3-.32,29.82-.78,59.1-3.57A860,860,0,0,0,1051,1244.72a850.75,850.75,0,0,0,91.55-29.09l.28-.11q4.41,3.59,8.76,7.25l.41.35c.74.62,1.48,1.25,2.2,1.88q.65.55,1.29,1.14l1.28,1.13C1158.74,1229,1160.62,1230.78,1162.35,1232.45Z"/><path class="cls-16" d="M1227.48,1369.16c-3.35,1.06-6.73,2.09-10.11,3.08a589.12,589.12,0,0,1-71.32,16.28h0a602.24,602.24,0,0,1-163.37,4.24,593.36,593.36,0,0,0,147.16-120.22q3.21-3.61,6.36-7.3c.7-.81,1.4-1.63,2.09-2.45s1.39-1.64,2.08-2.47q4.52-5.37,8.88-10.85c1-1.2,1.91-2.4,2.84-3.58q5.24-6.65,10.27-13.44l1.45,1.4,1.37,1.35.66.66c1.19,1.19,2.27,2.3,3.24,3.29l.36.37.34.36.66.68.29.3.29.31.25.26.33.36.39.41.78.84.6.65.2.21.37.42c.28.3.54.61.8.91.81.9,1.58,1.79,2.34,2.68,1,1.18,2,2.35,2.93,3.49l1,1.29q.53.63,1,1.26l1.15,1.46c.91,1.17,1.79,2.31,2.63,3.44l1.16,1.55q2,2.7,3.66,5.15c.3.42.59.85.87,1.26l.07.1.89,1.32.84,1.27q5.6,8.51,10.37,17.54A210.43,210.43,0,0,1,1227.48,1369.16Z"/><path class="cls-17" d="M1228.13,1385.86q0,8.13-.6,16.11a210.32,210.32,0,0,0-10.16-29.73,212.62,212.62,0,0,0-28.79-48.34A214.47,214.47,0,0,0,1051,1244.72a850.75,850.75,0,0,0,91.55-29.09l.28-.11q4.41,3.59,8.76,7.25l.41.35c.74.62,1.48,1.25,2.2,1.88q.65.55,1.29,1.14l1.28,1.13c2,1.76,3.83,3.51,5.56,5.18l1.45,1.4,1.37,1.35.66.66c1.19,1.19,2.27,2.3,3.24,3.29l.36.37.34.36.66.68.29.3.29.31.25.26.33.36.39.41.78.84.6.65.2.21.37.42.8.91c.81.9,1.58,1.79,2.34,2.68,1,1.18,2,2.35,2.93,3.49l1,1.29q.53.63,1,1.26l1.15,1.46c.91,1.17,1.79,2.31,2.63,3.44l1.16,1.55q2,2.7,3.66,5.15c.3.42.59.85.87,1.26l.07.1.89,1.32.84,1.27q5.6,8.51,10.37,17.54a210.43,210.43,0,0,1,23.78,82.12Q1228.13,1377.43,1228.13,1385.86Z"/><path class="cls-18" d="M1047.09,757.8c-23,3.11-44.58,5.75-64.47,7.94l-7.75.84c-31.27,3.35-58,5.57-79.15,6.87-14.67.91-26.61,1.37-35.42,1.45-20.28.18-39.11-.36-39.11-.36-4.41-.14-8.48-.32-12.46-.52-5.13-.26-10.09-.56-15.38-.86-14.53-.82-31.55-1.71-61.46-2.12-8.19-.11-17.35-.18-27.69-.21A442.64,442.64,0,0,0,660,773.5c-6.68.73-13.8,1.64-21.1,2.81h0a304.3,304.3,0,0,0-36.22,7.9h0c-18.75,5.43-36.23,13.06-48.38,23.78-1.39,1.22-4.59,4.72-7.82,8.43h0c-3.21,3.7-6.46,7.61-7.94,9.65l-.15.2c-.52.78-1,1.57-1.52,2.38-.2.32-.4.64-.59,1-.39.67-.73,1.29-1,1.8a66.14,66.14,0,0,0-3.47,55.85h0a66,66,0,0,1-9.55-58.73q.22-.74.51-1.56c.13-.36.26-.75.4-1.14.07-.19.15-.39.22-.59s.26-.69.41-1c.21-.52.42-1.07.66-1.62,0-.08.07-.15.1-.22.15-.34.29-.68.44-1l.16-.35c.16-.36.34-.72.51-1.08s.47-1,.73-1.47l.28-.54.15-.28c.06-.1.12-.22.18-.33l.2-.37c.5-.9,1.19-2.12,2-3.41.16-.27.34-.54.52-.82s.21-.34.33-.52l.1-.14a1.07,1.07,0,0,1,.13-.19l.12-.18c1.35-1.89,4.57-5.83,7.87-9.63h0a118.13,118.13,0,0,1,8-8.65c13.25-11.71,30.55-21.09,48.24-28.47h0c3.87-1.61,7.75-3.13,11.61-4.56h0a410.09,410.09,0,0,1,72.22-18.91c8.83-1.32,17.38-2.52,26.1-3.67,25.43-3.35,52.33-6.25,92-10.4l16.95-1.77c37.3-3.89,65.89-6.87,90.2-10.24,15.65-2.16,29.53-4.5,42.83-7.34a725.68,725.68,0,0,1,75,35.21Q1034.43,750.26,1047.09,757.8Z"/></g></g></g></svg>